<svg>
<div style="align-items: center; display: flex">
  <div style="       align-items: center;       background: #ffffff;       border-radius: 5px;       display: flex;       flex-shrink: 0;       height: 24px;       justify-content: center;       width: 24px;     ">
    <svg xmlns="http://www.w3.org/2000/svg" width="10" height="21" viewBox="0 0 10 21" fill="none" style="flex-shrink: 0">
      <path fill-rule="evenodd" clip-rule="evenodd" d="M0.088501 10.4714C0.088501 6.61718 2.16821 4.23524 3.52196 2.68323C4.17697 1.93493 4.66191 1.37807 4.66191 0.943665C4.66191 1.37807 5.14782 1.93395 5.80089 2.68323C7.15561 4.23524 9.23532 6.61718 9.23532 10.4714C9.23532 14.6756 6.5628 17.2256 5.27319 18.0177L5.02149 20.3802H4.33441L4.05258 18.0186C2.76394 17.2285 0.088501 14.6785 0.088501 10.4714ZM4.038 16.9827L4.66191 7.80475L5.29263 16.9846L4.66094 17.7135L4.038 16.9827Z" fill="black"/>
    </svg>
  </div>
  <svg xmlns="http://www.w3.org/2000/svg" width="24" height="24" viewBox="0 0 24 24" fill="none" style="flex-shrink: 0;">
    <path d="M18.3065 0.338104H5.91574C2.89666 0.338104 0.449219 2.78555 0.449219 5.80462V18.1954C0.449219 21.2145 2.89666 23.6619 5.91574 23.6619H18.3065C21.3256 23.6619 23.773 21.2145 23.773 18.1954V5.80462C23.773 2.78555 21.3256 0.338104 18.3065 0.338104Z" fill="#F4F2ED"/>
    <path d="M21.222 17.0052C20.9568 17.1057 20.6639 17.1056 20.3988 17.0047C20.1337 16.9039 19.9147 16.7095 19.7833 16.4581C18.9576 15.2221 18.0458 14.0417 17.1694 12.8361L16.7894 12.3295C15.7458 13.7277 14.7023 15.0701 13.7499 16.4632C13.6259 16.7034 13.4187 16.8903 13.1671 16.9891C12.9155 17.0879 12.6365 17.0919 12.3822 17.0002L16.298 11.747L12.6557 7.00024C12.9179 6.90558 13.2047 6.90428 13.4677 6.99657C13.7308 7.08885 13.9539 7.26907 14.0995 7.5068C14.9454 8.74296 15.8827 9.92328 16.8147 11.1746C17.7519 9.93339 18.679 8.74797 19.5452 7.52202C19.6699 7.2857 19.8772 7.10349 20.1275 7.01008C20.3779 6.91667 20.6538 6.91858 20.9028 7.01545L19.4895 8.88983C18.8563 9.72566 18.2332 10.5666 17.5746 11.3822C17.5216 11.4297 17.4791 11.4879 17.4501 11.5529C17.421 11.6179 17.406 11.6884 17.406 11.7596C17.406 11.8308 17.421 11.9013 17.4501 11.9663C17.4791 12.0313 17.5216 12.0895 17.5746 12.137C18.7854 13.7429 19.9859 15.3538 21.222 17.0052ZM3.00027 11.6811C3.10669 11.1746 3.17247 10.6224 3.31943 10.1057C4.1958 6.99022 7.76717 5.69328 10.2241 7.62342C11.6628 8.75317 12.0225 10.3539 11.9516 12.1573H3.84631C3.71457 15.3792 6.03975 17.3245 9.01335 16.3316C9.49573 16.159 9.92755 15.8691 10.2698 15.4879C10.6121 15.1067 10.854 14.6463 10.9738 14.1482C11.1309 13.6416 11.3842 13.5555 11.8654 13.7024C11.7861 14.3191 11.5681 14.9098 11.2277 15.4301C10.8872 15.9504 10.4333 16.3868 9.89993 16.7064C9.01871 17.1884 8.00763 17.3793 7.01132 17.252C6.015 17.1246 5.08449 16.6854 4.35287 15.9972C3.62906 15.1834 3.1914 14.155 3.10669 13.0692C3.10669 12.897 3.04082 12.7247 3.00538 12.5626C3.00203 12.2688 3.00032 11.975 3.00027 11.6811ZM3.85642 11.4633H11.1867C11.141 9.12799 9.66687 7.47145 7.70139 7.45633C5.51296 7.4259 3.94762 9.0469 3.85132 11.4532L3.85642 11.4633Z" fill="#0F0F0F"/>
  </svg>

  <div style="       align-items: center;       background: #ffffff;       border-radius: 5px;       display: flex;       flex-shrink: 0;       height: 24px;       justify-content: center;       width: 24px;     ">
    <svg xmlns="http://www.w3.org/2000/svg" width="22" height="20" viewBox="0 0 22 20" fill="none" style="flex-shrink: 0">
      <path d="M10.8899 11.4577C10.5032 11.4577 10.1325 11.3042 9.85909 11.0308C9.58571 10.7574 9.43213 10.3866 9.43213 10C9.43213 9.61339 9.58571 9.2426 9.85909 8.96922C10.1325 8.69585 10.5032 8.54226 10.8899 8.54226C11.2765 8.54226 11.6473 8.69585 11.9206 8.96922C12.194 9.2426 12.3476 9.61339 12.3476 10C12.3476 10.3866 12.194 10.7574 11.9206 11.0308C11.6473 11.3042 11.2765 11.4577 10.8899 11.4577ZM10.3767 14.3674C10.5465 14.5721 10.7175 14.7694 10.8899 14.9592C11.0622 14.77 11.2332 14.5728 11.403 14.3674C11.0609 14.3746 10.7188 14.3746 10.3767 14.3674ZM8.43795 14.2459C7.69175 14.1679 6.95042 14.0489 6.21733 13.8892C6.14412 14.2294 6.08905 14.5582 6.05212 14.8756C5.86747 16.414 6.12501 17.3489 6.51665 17.5744C6.9083 17.7999 7.84611 17.5559 9.08713 16.6278C9.34304 16.4361 9.60025 16.2239 9.85876 15.9913C9.35341 15.4361 8.87909 14.8534 8.43795 14.2459ZM15.5624 13.8892C14.8293 14.0489 14.088 14.1679 13.3418 14.2459C12.9006 14.8534 12.4263 15.4361 11.921 15.9913C12.1801 16.2245 12.4373 16.4367 12.6926 16.6278C13.9336 17.5559 14.8714 17.8008 15.2631 17.5744C15.6547 17.3489 15.9113 16.414 15.7286 14.8756C15.6889 14.5445 15.6328 14.2153 15.5624 13.8892ZM16.9725 13.5122C17.5333 16.0768 17.2388 18.1186 15.9929 18.8378C14.747 19.5569 12.8316 18.7911 10.8908 17.0234C8.9501 18.7911 7.03463 19.556 5.78875 18.8368C4.54287 18.1177 4.24841 16.0768 4.80818 13.5112C2.30573 12.7153 0.685699 11.4383 0.685699 10C0.685699 8.5617 2.30573 7.28569 4.80721 6.4888C4.24744 3.92318 4.5419 1.88234 5.78778 1.16319C7.03366 0.444043 8.94913 1.20887 10.8899 2.97662C12.8306 1.20887 14.7461 0.444043 15.9919 1.16319C17.2378 1.88234 17.5323 3.92318 16.9725 6.4888C19.473 7.28569 21.0931 8.5617 21.0931 10C21.0931 11.4383 19.473 12.7153 16.9725 13.5122ZM9.85779 4.0087C9.59993 3.77611 9.34304 3.56393 9.08713 3.37215C7.84611 2.44406 6.9083 2.19916 6.51568 2.42559C6.12403 2.65106 5.86747 3.58595 6.05018 5.12533C6.08905 5.44279 6.14412 5.77159 6.21539 6.11173C6.94878 5.95175 7.69043 5.83236 8.43698 5.7541C8.89957 5.11852 9.37317 4.53672 9.85779 4.0087ZM13.3418 5.7541C14.088 5.8324 14.8293 5.95179 15.5624 6.11173C15.6356 5.77094 15.6907 5.44214 15.7276 5.12533C15.9123 3.58595 15.6547 2.65106 15.2631 2.42559C14.8714 2.20013 13.9336 2.44406 12.6926 3.37215C12.4367 3.56393 12.1795 3.77611 11.921 4.0087C12.4056 4.53672 12.8792 5.11852 13.3418 5.7541ZM11.403 5.63262C11.2332 5.42789 11.0622 5.23061 10.8899 5.04078C10.7182 5.23061 10.5471 5.42789 10.3767 5.63262C10.7188 5.62539 11.0609 5.62539 11.403 5.63262ZM7.36408 12.6278C7.18681 12.3354 7.01573 12.0392 6.85096 11.7396C6.75831 11.989 6.67312 12.2358 6.59537 12.4801C6.84545 12.5339 7.10137 12.5831 7.36311 12.6278M9.24068 12.8552C10.338 12.9364 11.4398 12.9364 12.5371 12.8552C13.1564 11.9454 13.7076 10.991 14.1863 10C13.7079 9.00899 13.157 8.05465 12.5381 7.14478C11.4408 7.06364 10.339 7.06364 9.24165 7.14478C8.62271 8.05465 8.07181 9.00899 7.59343 10C8.07181 10.991 8.62271 11.9454 9.24165 12.8552M14.9288 8.26043C15.0214 8.011 15.1066 7.76448 15.1844 7.52088C14.9296 7.4656 14.6736 7.41602 14.4166 7.37219C14.5936 7.66463 14.7643 7.96078 14.9288 8.26043ZM5.18525 7.89794C4.85483 8.00484 4.54255 8.12146 4.24841 8.2478C2.82469 8.85811 2.14344 9.5481 2.14344 10C2.14344 10.4519 2.82372 11.1419 4.24841 11.7522C4.54255 11.8785 4.85483 11.9952 5.18525 12.1021C5.401 11.4218 5.66825 10.7162 5.98701 10C5.68131 9.31459 5.41365 8.61284 5.18525 7.89794ZM6.5944 7.52088C6.67279 7.76383 6.75831 8.01003 6.85096 8.25946C7.01574 7.96013 7.18682 7.6643 7.36408 7.37219C7.10169 7.41689 6.84448 7.46645 6.5944 7.52088ZM16.5955 12.1021C16.9259 11.9952 17.2382 11.8785 17.5323 11.7522C18.955 11.1419 19.6353 10.4519 19.6353 10C19.6353 9.5481 18.955 8.85811 17.5303 8.2478C17.2362 8.12146 16.9236 8.00484 16.5925 7.89794C16.3787 8.57822 16.1105 9.28377 15.7918 10C16.1105 10.7162 16.3778 11.4218 16.5935 12.1021M15.1844 12.4801C15.1053 12.2358 15.0198 11.989 14.9278 11.7396C14.763 12.0392 14.5919 12.3354 14.4147 12.6278C14.6771 12.5825 14.9343 12.5332 15.1844 12.4801Z" fill="black"/>
    </svg>
  </div>
  <div style="       align-items: center;       background: #ffffff;       border-radius: 5px;       display: flex;       flex-shrink: 0;       height: 24px;       justify-content: center;       width: 24px;     ">
    <svg xmlns="http://www.w3.org/2000/svg" width="19" height="22" viewBox="0 0 19 22" fill="none" style="flex-shrink: 0">
      <path d="M10.2001 0.999812C9.93883 0.846177 9.64123 0.765167 9.33811 0.765167C9.035 0.765167 8.7374 0.846177 8.47611 0.999812L0.944459 5.42939C0.689023 5.57958 0.477261 5.79391 0.330153 6.05113C0.183046 6.30836 0.105698 6.59956 0.105774 6.89588V15.7803C0.105774 16.3828 0.424533 16.9407 0.944459 17.2458L3.49356 18.7453C4.789 19.5092 6.42264 18.5743 6.42264 17.0719V7.20492H4.47899V17.0709L2.04942 15.6413V7.03485L9.33811 2.74715L16.6268 7.03485V15.6413L9.33811 19.929L7.61993 18.9183L6.6345 20.5928L8.47611 21.6764C8.7374 21.83 9.035 21.911 9.33811 21.911C9.64123 21.911 9.93883 21.83 10.2001 21.6764L17.7318 17.2458C17.9871 17.0957 18.1987 16.8815 18.3458 16.6245C18.4929 16.3675 18.5704 16.0765 18.5705 15.7803V6.89588C18.5704 6.59972 18.4929 6.30872 18.3458 6.05168C18.1987 5.79464 17.9871 5.58047 17.7318 5.43036L10.2001 0.999812ZM11.2818 6.96488C9.95717 6.96488 9.01838 7.30599 8.41488 7.90755C7.95916 8.36081 7.70161 8.97619 7.69865 9.61893C7.69865 10.1583 7.85122 10.6471 8.16707 11.0514C8.47125 11.4401 8.87164 11.6821 9.25551 11.8386C9.95522 12.1272 10.8299 12.2215 11.5335 12.2963L11.618 12.306C12.4256 12.3935 13.0311 12.4683 13.445 12.6413C13.6326 12.7191 13.7094 12.791 13.7415 12.8328C13.7619 12.86 13.8017 12.9202 13.8017 13.0854C13.8017 13.342 13.7142 13.5072 13.4392 13.6637C13.102 13.8551 12.5063 14.0009 11.6093 14.0009C10.7201 14.0009 10.1 13.8357 9.74531 13.5908C9.47028 13.4003 9.26717 13.1078 9.32062 12.4732L7.38377 12.3109C7.27882 13.5636 7.73266 14.5616 8.63937 15.1894C9.4664 15.7628 10.5539 15.9445 11.6093 15.9445C12.6559 15.9445 13.6423 15.7842 14.4013 15.3517C15.2235 14.8853 15.7454 14.1058 15.7454 13.0854C15.7454 12.5441 15.5947 12.0543 15.2818 11.6471C14.9805 11.2545 14.5801 11.0096 14.1953 10.8483C13.4878 10.5519 12.6015 10.4566 11.894 10.3808L11.826 10.3731C11.0165 10.2856 10.411 10.2127 9.9941 10.0417C9.80556 9.96393 9.72879 9.89396 9.69963 9.85508C9.6802 9.83176 9.6423 9.77734 9.6423 9.61893C9.6423 9.5441 9.66465 9.4061 9.78807 9.28365C9.90663 9.16509 10.273 8.90853 11.2818 8.90853C12.2439 8.90853 12.8046 9.01057 13.1253 9.20007C13.3343 9.32447 13.5607 9.55285 13.5918 10.3012L15.5335 10.2234C15.4849 9.01251 15.0418 8.07762 14.1166 7.52951C13.3032 7.04554 12.2633 6.96488 11.2818 6.96488Z" fill="black"/>
    </svg>
  </div>
</div>
</svg>